<svg width="48" height="48" viewBox="0 0 30 32" fill="none" xmlns="http://www.w3.org/2000/svg">
<path fill-rule="evenodd" clip-rule="evenodd" d="M17.7425 0.757179C15.9867 -0.252393 13.8235 -0.252393 12.0677 0.757179L3.06992 5.93074C1.314 6.94036 0.231934 8.80649 0.231934 10.8264V21.1736C0.231934 23.1935 1.314 25.0596 3.06992 26.0693L12.0677 31.2428C13.8235 32.2524 15.9867 32.2524 17.7425 31.2428L26.7403 26.0693C28.4962 25.0596 29.5783 23.1935 29.5783 21.1736V10.8264C29.5783 8.80649 28.4962 6.94036 26.7403 5.93074L17.7425 0.757179ZM13.3854 3.0327C14.3257 2.49199 15.4845 2.49199 16.4249 3.0327L21.091 5.71565C21.7783 6.11081 21.7781 7.09812 21.0907 7.49301L21.0893 7.4938L16.0897 10.4299C15.3082 10.8785 14.345 10.8786 13.5637 10.4294L9.41805 8.0457C8.78799 7.68342 7.98199 7.89811 7.61776 8.52638C7.25327 9.1551 7.46988 9.9587 8.10038 10.3212L12.246 12.7049C13.8333 13.6176 15.8009 13.7697 17.4065 12.8473L24.9094 8.54383C25.1629 8.39821 25.4504 8.36391 25.6786 8.48245C26.1869 8.74651 26.4986 9.09203 26.6859 9.4853C26.8748 9.88201 26.9418 10.3376 26.9418 10.8264V21.1736C26.9418 22.2542 26.3629 23.2531 25.4226 23.7937L20.7226 26.4961C20.034 26.8921 19.1755 26.3964 19.1755 25.6076L19.1755 20.1312C19.1755 19.233 19.6567 18.4026 20.4384 17.9531L24.5832 15.5699C25.2137 15.2074 25.4303 14.4038 25.0658 13.7751C24.7016 13.1468 23.8956 12.9321 23.2655 13.2944L19.1207 15.6776C17.5234 16.596 16.5391 18.2936 16.5391 20.1312L16.5391 28.3706C16.5391 28.7132 16.3747 29.0282 16.0903 29.1779C15.4975 29.4899 15.0354 29.552 14.6241 29.4864C14.205 29.4196 13.8221 29.2184 13.3854 28.9673L4.38759 23.7937C3.44728 23.2531 2.8684 22.2542 2.8684 21.1736V15.8112C2.8684 15.0222 3.72725 14.5265 4.41586 14.9228L9.36222 17.7475C10.1434 18.1971 10.6241 19.0272 10.6241 19.925V24.6923C10.6241 25.4185 11.215 26.0059 11.9424 26.0059C12.6697 26.0059 13.2606 25.4185 13.2606 24.6923V19.925C13.2606 18.0882 12.277 16.3911 10.6807 15.4724L3.30703 11.2508C3.01953 11.0854 2.83104 10.8022 2.83273 10.4961C2.83568 9.96307 2.95082 9.54699 3.19308 9.19033C3.43733 8.83074 3.82046 8.51724 4.38467 8.2079L4.38613 8.2071L13.3854 3.0327Z" fill="#9333ea"/>
</svg>
